<?xml version="1.0" encoding="utf-8"?>
<!-- Generator: Adobe Illustrator 24.3.0, SVG Export Plug-In . SVG Version: 6.00 Build 0)  -->
<svg version="1.1"
	 id="svg2" inkscape:version="1.0 (4035a4fb49, 2020-05-01)" sodipodi:docname="Dacia 2021 Logo.svg" xmlns:cc="http://creativecommons.org/ns#" xmlns:dc="http://purl.org/dc/elements/1.1/" xmlns:inkscape="http://www.inkscape.org/namespaces/inkscape" xmlns:rdf="http://www.w3.org/1999/02/22-rdf-syntax-ns#" xmlns:sodipodi="http://sodipodi.sourceforge.net/DTD/sodipodi-0.dtd" xmlns:svg="http://www.w3.org/2000/svg"
	 xmlns="http://www.w3.org/2000/svg" xmlns:xlink="http://www.w3.org/1999/xlink" x="0px" y="0px" viewBox="0 0 1500 210.9"
	 style="enable-background:new 0 0 1500 210.9;" xml:space="preserve">
<style type="text/css">
	.st0{fill-rule:evenodd;clip-rule:evenodd;fill:#241F21;}
	.st1{fill:#241F21;}
</style>
<g id="layer1" transform="translate(149.47448,-336.20361)" inkscape:groupmode="layer" inkscape:label="Calque 1">
	<path id="path4168" class="st0" d="M-133.7,364.5v50.9l187.5,1.2c4.5,0,7,1,9.8,3.9l19.9,17.2c1.5,1.5,2.1,2.4,2.1,3.9
		c0,1.5-0.7,2.4-2.1,3.9l-19.9,17.2c-2.8,2.8-5.3,3.9-9.8,3.9l-187.5,1.2v50.9h211c7.5,0,11.2-1.2,16.1-6.1l60.3-62.3
		c2.3-2.3,3.8-5.8,3.8-8.8c0-3-1.5-6.5-3.8-8.8l-60.3-62.3c-4.8-4.8-8.5-6.1-16.1-6.1H-133.7z"/>
	<path id="path133" class="st1" d="M342.3,364.5c-3.3,0-5.2,0.7-6.5,2l-148,148.6c-1.6,1.6-0.9,3.7,1.6,3.7h72l76.3-79.2
		c1.6-1.6,2.8-2.2,4.7-2.2c1.9,0,3.1,0.7,4.7,2.2l76.3,79.2h72c2.4,0,3.1-2.1,1.6-3.7l-148-148.6
		C347.5,365.2,345.6,364.5,342.3,364.5L342.3,364.5z"/>
	<path id="path4168-2" class="st0" d="M819.5,364.5v50.9L632,416.6c-4.5,0-7,1-9.8,3.9l-19.9,17.2c-1.5,1.5-2.1,2.4-2.1,3.9
		c0,1.5,0.7,2.4,2.1,3.9l19.9,17.2c2.8,2.8,5.3,3.9,9.8,3.9l187.5,1.2v50.9h-211c-7.5,0-11.2-1.2-16.1-6.1l-60.3-62.3
		c-2.3-2.3-3.8-5.8-3.8-8.8c0-3,1.5-6.5,3.8-8.8l60.3-62.3c4.8-4.8,8.5-6.1,16.1-6.1L819.5,364.5z"/>
	<rect id="rect166" x="907.5" y="364.5" class="st1" width="59" height="154.3"/>
	<path id="path133-9" class="st1" d="M1179.4,364.5c-3.3,0-5.2,0.7-6.5,2l-148,148.6c-1.6,1.6-0.9,3.7,1.6,3.7h72l76.3-79.2
		c1.6-1.6,2.8-2.2,4.7-2.2s3.1,0.7,4.7,2.2l76.3,79.2h72c2.4,0,3.1-2.1,1.6-3.7l-148-148.6C1184.6,365.2,1182.7,364.5,1179.4,364.5
		L1179.4,364.5z"/>
</g>
</svg>
