<?xml version="1.0" encoding="utf-8"?>
<!-- Generator: Adobe Illustrator 24.3.0, SVG Export Plug-In . SVG Version: 6.00 Build 0)  -->
<svg version="1.1" id="Layer_1" xmlns="http://www.w3.org/2000/svg" xmlns:xlink="http://www.w3.org/1999/xlink" x="0px" y="0px"
	 viewBox="0 0 841.9 595.3" style="enable-background:new 0 0 841.9 595.3;" xml:space="preserve">
<style type="text/css">
	.st0{fill:#FFFFFF;}
</style>
<g>
	<path class="st0" d="M17.5,395.7c0-1.4,0-2.6,0-3.9c0.7-0.1,1.3-0.1,1.9-0.1c8.1,0,16.1,0,24.2,0c1.5,0,2.1,0.6,2.6,1.8
		c8.1,18.8,16.2,37.6,24.3,56.4c0.5,1,0.9,2.1,1.6,3.5c0.5-1,0.8-1.6,1.1-2.3c8.4-19.1,16.8-38.3,25.1-57.4c0.6-1.5,1.4-2,3-1.9
		c7.7,0.1,15.4,0,23.1,0c0.7,0,1.4,0,2.2,0c0,1.4,0,2.7,0,4.3c-1.9,0-3.7-0.1-5.5,0c-4.7,0.2-6.3,1.6-6.2,6.2
		c0.2,7.5,0.6,15,1.1,22.4c0.7,11.7,1.6,23.4,2.4,35c0.6,8.8,2.6,10.7,11.6,10.8c0.4,0,0.8,0,1.5,0.1c0,1.3,0,2.6,0,4
		c-13.4,0-26.7,0-40.2,0c0-1.3,0-2.6,0-4c2.3-0.3,4.6-0.4,6.9-0.8c5.5-1,6.9-3,6.5-8.5c-0.9-12.2-1.6-24.4-2.4-36.5
		c-0.4-5.7-0.7-11.4-1-17.1c0-0.8-0.2-1.7-0.6-2.5c-2.1,4.7-4.1,9.4-6.2,14c-7.9,17.9-15.7,35.8-23.5,53.7c-0.7,1.6-1.6,2-3.2,2
		c-1.7,0.1-2.2-0.8-2.7-2.1c-9.3-21.9-18.7-43.8-28-65.7c-0.3-0.6-0.6-1.2-1.2-1.8c-0.4,4.9-0.8,9.7-1.3,14.6
		c-1.1,13.6-2.3,27.2-3.4,40.7c-0.1,1.3-0.2,2.6-0.2,3.8c0,3,0.9,4.6,3.9,5.3c2.5,0.6,5,0.8,7.7,1.2c0,1.2,0,2.4,0,3.8
		c-10.9,0-21.7,0-32.7,0c0-1.3,0-2.6,0-4c2.5-0.3,4.9-0.4,7.4-0.8c4.7-0.7,6.5-2.4,7-7.2c0.8-7.6,1.4-15.2,2.1-22.8
		c1-12,1.9-24,2.8-36.1c0.1-0.9,0-1.8,0-2.8c-0.1-2.3-1.3-3.7-3.6-4.1C22.9,396.3,20.3,396,17.5,395.7z"/>
	<path class="st0" d="M514.7,470.2c0,1.6,0,2.8,0,4.2c-14.3,0-28.6,0-43,0c0-1.3,0-2.4,0-3.8c2.1-0.2,4.3-0.2,6.5-0.5
		c4.9-0.6,7-2.8,7-7.8c0.1-19.6,0.1-39.1,0-58.7c0-4-1.4-5.5-5.4-6.1c-1.3-0.2-2.7-0.3-4-0.4c-1.3-0.1-2.5-0.2-4-0.3
		c0-1.4,0-2.7,0-4.2c4.2-0.4,8.3-0.9,12.4-1.2c10.7-0.8,21.5-1.5,32.3-0.2c6.2,0.7,12.2,2.4,17.5,5.9c12.6,8.5,12.3,27.8-0.7,35.7
		c-2.4,1.5-5.1,2.5-7.8,3.9c5.8,5.5,8.3,12.9,11.7,19.7c0.7,1.4,1.5,2.8,2.2,4.1c3.1,5.5,6.8,10.3,13.8,11.1c0,1.5,0,2.8,0,4.6
		c-3-0.3-6-0.4-8.9-0.9c-8.3-1.6-14.6-6.3-19.3-13.2c-3.7-5.6-7.2-11.3-10.2-17.3c-2.2-4.5-4.9-6.5-9.9-5.6c-1.5,0.3-3.1,0-4.6,0
		c-0.2,0.3-0.3,0.4-0.3,0.5c0,8.1-0.1,16.1,0.2,24.2c0.1,4.3,1.9,6,6.3,6.3C509.1,470.4,511.8,470.2,514.7,470.2z M500.1,433.9
		c4.5,0,8.8,0.4,13.1-0.1c7.7-0.8,12.4-5.2,13.9-12.5c0.4-2.1,0.6-4.2,0.6-6.4c0.1-15.7-12.5-22.1-27.5-19
		C500.1,408.6,500.1,421.2,500.1,433.9z"/>
	<path class="st0" d="M663.7,470.4c0,1.4,0,2.6,0,4c-13.5,0-26.9,0-40.5,0c0-1.3,0-2.6,0-3.9c2.7-0.3,5.3-0.4,7.9-0.9
		c4.1-0.8,5.2-2.4,4.5-6.5c-0.5-2.7-1.4-5.4-2.3-8c-1.6-4.8-3.3-9.6-5-14.4c-0.4-1.2-0.9-1.7-2.3-1.6c-7.9,0.1-15.8,0-23.8,0.1
		c-0.7,0-1.8,0.5-2,1c-2.4,6.2-4.9,12.3-6.8,18.7c-2,7.1-0.2,9.5,7,10.8c1.7,0.3,3.5,0.4,5.4,0.7c0,1.3,0,2.6,0,4
		c-11.1,0-22.2,0-33.3,0c-1-3.1-0.7-3.8,2.3-4.5c4.5-1.1,7.7-3.7,9.4-7.9c3.6-8.6,7-17.3,10.5-26c5-12.6,9.9-25.2,15-37.8
		c1-2.4,1.3-4.6,0-6.9c-0.3-0.6-0.4-1.3-0.8-2.3c4.7,0,9.3-0.1,13.8,0.1c0.5,0,1.2,1,1.5,1.7c4.6,12.1,9.1,24.2,13.6,36.2
		c4.4,11.7,8.7,23.4,13.1,35.1c0.4,1.1,1,2.2,1.5,3.3c1.3,2.9,3.6,4.3,6.7,4.6C660.8,470.1,662.2,470.2,663.7,470.4z M603.2,433
		c7.5,0,14.6,0,22,0c-3.5-9.7-6.9-19.2-10.6-29.3C610.7,413.8,607,423.3,603.2,433z"/>
	<path class="st0" d="M249.4,470.4c0,1.4,0,2.7,0,4c-13.5,0-26.9,0-40.4,0c0-1.3,0-2.6,0-4c2.4-0.2,4.8-0.3,7.1-0.7
		c5.1-0.9,6.4-2.8,5-7.8c-1.3-4.5-2.9-8.9-4.5-13.4c-0.9-2.7-2-5.3-2.9-8.1c-0.4-1.1-0.9-1.4-2-1.4c-8.1,0-16.1,0-24.2,0.1
		c-0.6,0-1.5,0.4-1.7,0.9c-2.7,7-6.1,13.9-7.1,21.4c-0.6,4.4,0.8,6.6,5.1,7.6c1.7,0.4,3.4,0.7,5.1,0.9c2.8,0.3,2.9,0.2,2.8,3.2
		c0,0.4-0.1,0.7-0.1,1.2c-11.1,0-22.2,0-33.4,0c0-1.3,0-2.5,0-3.9c0.8-0.2,1.6-0.4,2.4-0.6c4.8-1.1,8.1-4,9.9-8.6
		c8.7-21.8,17.4-43.6,26-65.4c0.3-0.7,0.2-1.7,0-2.4c-0.4-1.4-1-2.8-1.6-4.5c4.8,0,9.4,0,14,0.1c0.4,0,1,1,1.3,1.7
		c4.7,12.6,9.4,25.3,14.1,37.9c4,10.8,8,21.7,12.1,32.5c0.2,0.5,0.4,0.9,0.5,1.4c1.5,5,4.8,7.8,10.2,7.7
		C247.8,470.1,248.5,470.3,249.4,470.4z M200.1,403.7c-3.9,10.1-7.7,19.7-11.4,29.3c7.5,0,14.6,0,22,0
		C207.1,423.3,203.7,413.8,200.1,403.7z"/>
	<path class="st0" d="M367.3,395.8c0-1.5,0-2.7,0-4.1c21.9,0,43.8,0,65.9,0c0.3,6.2,0.6,12.3,0.9,18.4c-0.3,0.2-0.4,0.3-0.5,0.3
		c-3.6,0.2-3.6,0.2-4.4-3.2c0-0.1,0-0.3-0.1-0.4c-1.9-7.9-4.4-9.9-12.5-9.9c-6.2,0-12.4,0-18.6,0c-0.8,0-1.5,0-2.5,0
		c0,11,0,21.8,0,32.8c0.8,0,1.5,0.1,2.3,0.1c6.5,0,13,0,19.5,0c4.9,0,6.3-1.1,7.3-5.9c0.3-1.4,0.5-2.8,0.7-4.2c1.4,0,2.8,0,4.3,0
		c0,8.8,0,17.4,0,26.2c-1.4,0-2.8,0-4.1,0c-0.3-2.2-0.6-4.3-1-6.3c-0.5-2.6-2.1-4.1-4.7-4.2c-4.8-0.2-9.6-0.3-14.3-0.3
		c-3.3,0-6.5,0-10,0c0,0.8-0.1,1.5-0.1,2.2c0,8.5,0,17,0,25.5c0,6.1,0.7,6.8,6.9,6.8c6.3,0,12.6,0,18.8-0.2c4.7-0.1,8-2.4,9.9-6.6
		c1.3-2.8,2.3-5.8,3.5-8.9c1.2,0,2.5,0,4.2,0c-0.3,3.5-0.6,6.9-0.9,10.2c-0.3,3.4-0.6,6.8-1,10.4c-23.1,0-46.1,0-69.4,0
		c0-1.2,0-2.5,0-3.9c2.3-0.2,4.6-0.3,6.8-0.6c3.9-0.5,5.7-2.3,6.2-6.2c0.2-1.1,0.2-2.3,0.2-3.4c0-18.1,0-36.1,0-54.2
		c0-8.1-2.1-10.2-10.3-10.4C369.4,395.8,368.4,395.8,367.3,395.8z"/>
	<path class="st0" d="M394.4,240.4c18.6-25.6,23.9-54,22.1-84.5c-3.1,1.4-6,2.8-8.9,4.1c-2.9,1.3-5.6,3-9.5,3.4
		c0.9-1.2,1.3-1.9,1.9-2.6c2.1-2.3,4.3-4.6,6.4-6.9c7.4-7.8,10.5-17.5,12.4-27.7c0.5-2.7,1.1-5.4,1.7-8.1c0.2,0,0.5,0,0.7,0
		c0.3,1.2,0.7,2.5,1,3.7c0.9,4.2,1.7,8.4,2.7,12.5c2.1,9.3,7.4,16.7,14,23.4c1.6,1.6,3.1,3.3,4.6,4.9c-0.1,0.2-0.2,0.5-0.4,0.7
		c-1-0.2-2.1-0.3-3.1-0.7c-4.1-1.8-8.2-3.7-12.3-5.6c-0.8-0.3-1.5-0.6-2.5-1c-1.8,30.5,3.5,59,22.1,84.5c-5.3,0-10,0.1-14.7-0.1
		c-0.5,0-1.2-0.9-1.6-1.5c-4.1-6.8-7.3-14-9.4-21.7c-0.2-0.7-0.4-1.5-1.1-2.3c-0.2,0.7-0.5,1.4-0.6,2.1c-2.2,7.8-5.4,15.2-9.6,22.1
		c-0.4,0.6-1.1,1.3-1.6,1.4C404.3,240.4,399.7,240.4,394.4,240.4z"/>
	<path class="st0" d="M757.6,410.7c-4.3,0.5-4.2,0.4-5.3-3.3c-0.6-2.2-1.4-4.3-2.3-6.4c-1.1-2.4-3-3.9-5.7-3.9
		c-6.3-0.1-12.7,0-19.1,0c-0.1,0.4-0.2,0.7-0.2,1c0,20.9,0,41.8,0.1,62.7c0,6.8,1.8,8.5,8.6,9.1c2.2,0.2,4.4,0.3,6.8,0.4
		c0,1.4,0,2.7,0,4.1c-15.2,0-30.3,0-45.5,0c0-1.4,0-2.6,0-4.1c2.2-0.1,4.4-0.3,6.6-0.4c7.4-0.5,9-2.1,9-9.4c0-20.5,0-41,0-61.5
		c0-0.6,0-1.3,0-2.1c-0.9,0-1.6-0.1-2.3-0.1c-5.6,0.1-11.1,0.1-16.7,0.3c-3.2,0.1-5.4,1.7-6.4,4.8c-0.7,2-1.3,3.9-1.9,5.9
		c-1.1,3.4-1.1,3.4-5,2.8c0.6-7.1,1.1-14.3,1.7-21.5c1.8-0.2,3.1-0.3,4.6,1.1c1.1,1,3.1,1.3,4.7,1.3c13.8,0.1,27.7,0.1,41.5,0.1
		c5.1,0,10.3,0,15.4-0.1c2.2,0,4.4,0.1,5.9-2.2c0.4-0.6,2.1-0.3,3.4-0.5C756.2,396.3,756.9,403.4,757.6,410.7z"/>
	<path class="st0" d="M281.1,475.5c-0.8-7-1.6-14-2.5-21.3c1.1,0,2.1,0.1,3,0c1.2-0.1,1.7,0.4,2.2,1.5c1.6,4.2,3.9,8.1,7.3,11.2
		c5.8,5.1,12.3,7.4,19.9,4.4c8.9-3.5,11.9-13.7,6.2-21.4c-2-2.6-4.6-4.9-7.3-6.8c-4.5-3.2-9.3-5.8-13.8-9c-3.9-2.8-7.9-5.7-11.2-9.2
		c-11.2-11.4-6.4-28.3,7.8-34.1c7.5-3.1,15-2,22.4,0.6c1.1,0.4,2.2,1,3.4,1.3c0.7,0.2,1.8,0.2,2.1-0.2c1.5-1.8,3.3-1.1,5.3-1.1
		c0.7,6.5,1.3,13,1.9,19.4c-3.5,1-4.1,0.7-5.6-2.4c-1.9-4-4.2-7.7-7.7-10.4c-4.5-3.6-9.7-5-15.3-3.2c-8.8,2.7-11.4,13.1-4.7,19.4
		c3.2,3,6.9,5.5,10.5,8c4.1,2.9,8.5,5.3,12.4,8.3c3.3,2.5,6.7,5.2,9.2,8.5c11.2,14.6,3.1,34.8-15.1,38c-7.3,1.3-14.3-0.2-21.3-2.3
		c-1-0.3-2.1-0.5-3.1-0.6c-0.5-0.1-1.4,0-1.6,0.4C284.7,476.3,283,475.5,281.1,475.5z"/>
	<path class="st0" d="M832.1,470.5c0,1.3,0,2.5,0,3.9c-14.2,0-28.3,0-42.5,0c0-1.3,0-2.6,0-4.1c2.4-0.2,4.8-0.4,7.2-0.7
		c3.4-0.4,4.5-1.1,5-4.5c0.7-4.8,1.2-9.8,1.3-14.7c0.2-14.6,0-29.3,0-43.9c0-1.3-0.2-2.6-0.4-3.8c-0.4-2.9-2.1-4.9-4.9-5.5
		c-2.8-0.7-5.7-1-8.7-1.6c0-1.2,0-2.5,0-3.9c14.2,0,28.3,0,42.6,0c0,1.3,0,2.5,0,4c-1.9,0.2-3.9,0.4-5.9,0.6
		c-5.4,0.6-7.2,2.4-7.9,7.8c-0.2,2-0.3,4-0.3,6c0,16.4,0,32.8,0,49.3c0,1.2,0.2,2.4,0.3,3.6c0.5,3.3,2.3,5.5,5.6,6.2
		C826.4,469.7,829.2,470.1,832.1,470.5z"/>
	<path class="st0" d="M341,158.6c8.6-2.2,31.9,12.6,35.8,22.7c-2.7-1.3-5.2-2.6-7.8-3.6c-2.6-1-5.3-1.6-8.1-2.1
		c5.3,10.2,10.2,20.4,13.2,31.3c3,10.9,4.7,22,6,33.3c-4.6,0-8.9,0-13.6,0c-0.1-1.4-0.2-2.7-0.3-4.1c-0.8-12.9-2.4-25.7-5.6-38.3
		c-3.1-12.3-8.8-23.4-16.2-33.7c-1.1-1.5-2.1-3.1-3.1-4.6C341.1,159.3,341.1,159,341,158.6z"/>
	<path class="st0" d="M475.5,240.3c-4.6,0-9,0-13.6,0c2.2-22.8,7.3-44.6,19.7-64.6c-6.4,0.3-11.3,3.1-16.6,5.8
		c3.9-10.3,28.1-25.6,36.1-22.7c-1.1,1.7-2.2,3.4-3.3,5c-7.5,10.5-13.4,21.7-16.5,34.3c-2.7,10.8-4.3,21.8-5.2,32.9
		C475.9,234,475.8,237,475.5,240.3z"/>
	<path class="st0" d="M434,290.4c-8.6,0-17.2,0-26,0c-0.6-11.8-6.5-19-18.8-20.7c0.1-0.2,0.3-0.3,0.4-0.5c20.8,0,41.7,0,62.5,0
		c-4.8,1.5-9.7,3-13.2,7C435.5,280.3,434.4,285.2,434,290.4z"/>
	<path class="st0" d="M434.7,325.5c-9.2,0-18.2,0-27.4,0c0-6.2,0-12.4,0-18.6c9.2,0,18.2,0,27.4,0
		C434.7,313,434.7,319.2,434.7,325.5z"/>
	<path class="st0" d="M481.2,244.7c0,1,0,1.8,0,2.7c-40.2,0-80.4,0-120.6,0c0-0.9,0-1.7,0-2.7C400.8,244.7,440.9,244.7,481.2,244.7z
		"/>
	<path class="st0" d="M481.3,261.7c0,0.9,0,1.7,0,2.6c-40.2,0-80.3,0-120.6,0c0-0.8,0-1.6,0-2.6
		C400.8,261.7,440.9,261.7,481.3,261.7z"/>
	<path class="st0" d="M439.2,294.4c0,3,0,5.9,0,8.8c-12.2,0-24.3,0-36.5,0c0-2.9,0-5.8,0-8.8C414.9,294.4,427,294.4,439.2,294.4z"/>
	<path class="st0" d="M475.4,253.1c0,0.9,0,1.7,0,2.7c-36.3,0-72.5,0-108.8,0c0-0.9,0-1.7,0-2.7C402.8,253.1,439,253.1,475.4,253.1z
		"/>
	<path class="st0" d="M366.9,269.2c4.4,0,8.6,0,12.8,0c1,4.4-2.1,8.9-6.7,9.7c-5.4,0.9-6.1,0.3-6.1-5
		C366.9,272.4,366.9,270.9,366.9,269.2z"/>
	<path class="st0" d="M462.1,269.2c4.3,0,8.5,0,12.9,0c0,2.9,0,5.8,0,8.6c0,0.4-0.6,0.9-1,1.1C467.3,280.7,461.8,276.3,462.1,269.2z
		"/>
</g>
</svg>
